<svg width="100" height="30" viewBox="0 0 100 30" fill="none" xmlns="http://www.w3.org/2000/svg">
<path d="M9.23736 4C8.9956 4 8.75385 4.0967 8.56044 4.29011C8.36703 4.48352 8.31868 4.67692 8.31868 4.96703V19.7626C8.31868 20.9714 7.88352 22.0352 7.01319 22.8571C6.14286 23.7275 5.12747 24.1626 3.91868 24.1626C3.67692 24.1626 3.43516 24.2593 3.29011 24.4044C3.0967 24.5978 3 24.7912 3 25.0813C3 25.3714 3.0967 25.5648 3.29011 25.7099C3.48352 25.9033 3.67692 26 3.91868 26C5.65934 26 7.10989 25.3714 8.31868 24.1626C9.52747 22.9538 10.156 21.5033 10.156 19.7626V4.96703C10.156 4.72527 10.0593 4.48352 9.86593 4.29011C9.67253 4.0967 9.47912 4 9.23736 4Z" fill="black"/>
<path d="M65.8571 4.04835H51.9802C51.7385 4.04835 51.4967 4.14506 51.3033 4.33846C51.1099 4.53187 51.0615 4.72527 51.0615 4.96703C51.0615 5.20879 51.1582 5.45055 51.3033 5.59561C51.4967 5.78901 51.6901 5.83736 51.9802 5.83736H58.0242V25.033C58.0242 25.2747 58.1209 25.5165 58.2659 25.7099C58.4593 25.9033 58.6527 25.9516 58.8945 25.9516C59.1363 25.9516 59.378 25.8549 59.5714 25.7099C59.7648 25.5165 59.8132 25.3231 59.8132 25.033V5.83736H65.8571C66.0989 5.83736 66.3406 5.74066 66.4857 5.59561C66.6791 5.4022 66.7758 5.20879 66.7758 4.96703C66.7758 4.72527 66.6791 4.48352 66.4857 4.33846C66.2923 4.14506 66.0989 4.04835 65.8571 4.04835Z" fill="black"/>
<path d="M95.8835 4.29011C95.6901 4.0967 95.4967 4 95.2549 4H81.378C81.1363 4 80.8945 4.0967 80.7011 4.29011C80.5077 4.48352 80.4593 4.67692 80.4593 4.91868C80.4593 5.16044 80.556 5.4022 80.7011 5.54725C80.8945 5.74066 81.0879 5.78901 81.378 5.78901H87.422V24.9846C87.422 25.2264 87.5187 25.4681 87.6637 25.6615C87.8571 25.8549 88.0505 25.9033 88.2923 25.9033C88.5341 25.9033 88.7758 25.8066 88.9692 25.6615C89.1626 25.4681 89.211 25.2747 89.211 24.9846V5.78901H95.2549C95.4967 5.78901 95.7385 5.69231 95.8835 5.54725C96.0769 5.35385 96.1736 5.16044 96.1736 4.91868C96.1736 4.67692 96.0769 4.48352 95.8835 4.29011Z" fill="black"/>
<path d="M24.5648 15.7494H33.8483C34.0901 15.7494 34.3319 15.6527 34.4769 15.5077C34.6703 15.3143 34.767 15.1209 34.767 14.8791C34.767 14.6374 34.6703 14.3956 34.4769 14.2505C34.2835 14.0571 34.0901 13.9604 33.8483 13.9604H24.5648C24.3231 13.9604 24.0813 14.0571 23.8879 14.2505C23.6945 14.444 23.6462 14.6374 23.6462 14.8791C23.6462 15.1209 23.7429 15.3626 23.8879 15.5077C24.0813 15.6527 24.3231 15.7494 24.5648 15.7494Z" fill="black"/>
<path d="M36.411 4.09671H24.5648C24.3231 4.09671 24.0813 4.19341 23.8879 4.38681C23.6945 4.58022 23.6462 4.77363 23.6462 5.01538C23.6462 5.25714 23.7429 5.4989 23.8879 5.64396C24.0813 5.83736 24.2747 5.88571 24.5648 5.88571H36.411C36.6527 5.88571 36.8945 5.78901 37.0396 5.64396C37.233 5.45055 37.3297 5.25714 37.3297 5.01538C37.3297 4.77363 37.233 4.53187 37.0396 4.38681C36.8945 4.19341 36.7011 4.09671 36.411 4.09671Z" fill="black"/>
<path d="M36.411 24.1143H24.5648C24.3231 24.1143 24.0813 24.211 23.8879 24.4044C23.6945 24.5978 23.6462 24.7912 23.6462 25.033C23.6462 25.2747 23.7429 25.5165 23.8879 25.6615C24.0813 25.8549 24.2747 25.9033 24.5648 25.9033H36.411C36.6527 25.9033 36.8945 25.8066 37.0396 25.6615C37.233 25.4681 37.3297 25.2747 37.3297 25.033C37.3297 24.7912 37.233 24.5494 37.0396 24.4044C36.8945 24.211 36.7011 24.1143 36.411 24.1143Z" fill="black"/>
</svg>
