<svg width="571" height="437" viewBox="0 0 571 437" fill="none" xmlns="http://www.w3.org/2000/svg">
<g clip-path="url(#clip0_90_501)">
<path d="M-20 17.9496C233 4 278.522 119.65 219.172 253.18C337.099 122.1 378.135 211.054 386.349 289M525.595 289C545.47 219.37 472.527 231.943 442.93 253.18C429.153 263.065 416.207 276.666 406.044 289" stroke="black"/>
<path d="M517.579 310.212C519.158 306.877 520.59 303.533 521.857 300.189C523.352 296.243 524.593 292.517 525.596 289M517.579 310.212C480.403 388.729 361.628 462.22 393.502 408.549C422.855 359.123 477.188 315.358 517.579 310.212ZM517.579 310.212C556.827 305.212 582.912 336.676 560.124 434.843M560.124 434.843L567.275 430M560.124 434.843L555.275 428M406.044 289C397.858 298.935 391.477 308.047 387.92 313.734C387.747 305.818 387.242 297.474 386.349 289" stroke="#F8F5EF"/>
</g>
<defs>
<clipPath id="clip0_90_501">
<rect width="571" height="437" fill="white"/>
</clipPath>
</defs>
</svg>
